<svg width="128" height="128" viewBox="0 0 128 128" fill="none" xmlns="http://www.w3.org/2000/svg">
<path d="M38.1856 93.3339C39.9761 97.1504 43.2492 99.8724 48.005 101.5L48.3407 100.574C46.83 99.7321 45.5991 98.9183 44.6479 98.1325C43.6408 97.3468 42.6057 96.1962 41.5427 94.6809C39.5284 91.7624 38.4374 86.7954 38.2696 79.7799L38.2696 74.3077L38.2696 57.723C38.2696 53.0085 39.3886 48.8553 41.6266 45.2634C43.8646 41.6153 47.0258 38.8091 51.1102 36.8447C55.1387 34.8242 59.8106 33.814 65.1259 33.814C73.1828 33.814 79.6731 36.0309 84.5967 40.4647C89.5204 44.8424 91.9822 50.5952 91.9822 57.723L91.9822 67.2922L51.6628 67.2922L51.6628 72.7643L88.877 72.7643C90.2198 72.9327 91.3668 73.522 92.3179 74.5322C93.2131 75.5425 93.6607 76.7491 93.6607 78.1523L93.6607 79.1625L94.5 79.2467L94.5 57.723C94.5 48.7431 91.8144 41.475 86.4431 35.9187C81.0159 30.3062 73.9101 27.5 65.1259 27.5C59.307 27.5 54.2155 28.7909 49.8513 31.3726C45.4312 33.8982 42.0183 37.434 39.6124 41.9801C37.2065 46.5262 35.9196 51.7738 35.7518 57.723C35.5839 65.9171 35.5 71.0245 35.5 73.0449C35.5 82.7545 36.3952 89.5174 38.1856 93.3339Z" fill="#B57414"/>
<path fill-rule="evenodd" clip-rule="evenodd" d="M64 121C95.4802 121 121 95.4802 121 64C121 32.5198 95.4802 7 64 7C32.5198 7 7 32.5198 7 64C7 95.4802 32.5198 121 64 121ZM64 128C99.3462 128 128 99.3462 128 64C128 28.6538 99.3462 0 64 0C28.6538 0 0 28.6538 0 64C0 99.3462 28.6538 128 64 128Z" fill="#C27500"/>
</svg>