<svg width="128" height="128" viewBox="0 0 128 128" fill="none" xmlns="http://www.w3.org/2000/svg">
<path d="M64.223 44.5178C68.9375 44.5178 73.0907 45.6368 76.6826 47.8748C80.3307 50.1129 83.1369 53.2741 85.1013 57.3585C87.1217 61.3869 88.132 66.0588 88.132 71.3741L94.446 71.3741C94.446 65.5552 93.1551 60.4637 90.5734 56.0996C88.0478 51.6795 84.512 48.2665 79.9659 45.8606C75.4198 43.4547 70.1722 42.1679 64.223 42C58.2738 42.1679 53.0262 43.4547 48.4801 45.8606C43.934 48.2665 40.3982 51.6795 37.8726 56.0996C35.2909 60.4637 34 65.5552 34 71.3741L40.314 71.3741C40.314 66.0588 41.3242 61.3869 43.3447 57.3585C45.3091 53.2741 48.1153 50.1129 51.7634 47.8748C55.3553 45.6368 59.5086 44.5178 64.223 44.5178Z" fill="#B57414"/>
<path fill-rule="evenodd" clip-rule="evenodd" d="M64 121C95.4802 121 121 95.4802 121 64C121 32.5198 95.4802 7 64 7C32.5198 7 7 32.5198 7 64C7 95.4802 32.5198 121 64 121ZM64 128C99.3462 128 128 99.3462 128 64C128 28.6538 99.3462 0 64 0C28.6538 0 0 28.6538 0 64C0 99.3462 28.6538 128 64 128Z" fill="#C27500"/>
<ellipse cx="63.5" cy="69" rx="12.5" ry="12" fill="#B57414"/>
</svg>