<svg width="128" height="128" viewBox="0 0 128 128" fill="none" xmlns="http://www.w3.org/2000/svg">
<path d="M64.223 45.5178C68.9375 45.5178 73.0907 46.6368 76.6826 48.8748C80.3307 51.1129 83.1369 54.2741 85.1013 58.3585C87.1217 62.3869 88.132 67.0588 88.132 72.3741L94.446 72.3741C94.446 66.5552 93.1551 61.4637 90.5734 57.0996C88.0478 52.6795 84.512 49.2665 79.9659 46.8606C75.4198 44.4547 70.1722 43.1679 64.223 43C58.2738 43.1679 53.0262 44.4547 48.4801 46.8606C43.934 49.2665 40.3982 52.6795 37.8726 57.0996C35.2909 61.4637 34 66.5552 34 72.3741L40.314 72.3741C40.314 67.0588 41.3242 62.3869 43.3447 58.3585C45.3091 54.2741 48.1153 51.1129 51.7634 48.8748C55.3553 46.6368 59.5086 45.5178 64.223 45.5178Z" fill="#B57414"/>
<path fill-rule="evenodd" clip-rule="evenodd" d="M64 121C95.4802 121 121 95.4802 121 64C121 32.5198 95.4802 7 64 7C32.5198 7 7 32.5198 7 64C7 95.4802 32.5198 121 64 121ZM64 128C99.3462 128 128 99.3462 128 64C128 28.6538 99.3462 0 64 0C28.6538 0 0 28.6538 0 64C0 99.3462 28.6538 128 64 128Z" fill="#C27500"/>
</svg>