<?xml version="1.0" encoding="UTF-8" standalone="no"?>
<!-- Created with Inkscape (http://www.inkscape.org/) -->

<svg
   xmlns:dc="http://purl.org/dc/elements/1.1/"
   xmlns:cc="http://creativecommons.org/ns#"
   xmlns:rdf="http://www.w3.org/1999/02/22-rdf-syntax-ns#"
   xmlns:svg="http://www.w3.org/2000/svg"
   xmlns="http://www.w3.org/2000/svg"
   xmlns:sodipodi="http://sodipodi.sourceforge.net/DTD/sodipodi-0.dtd"
   xmlns:inkscape="http://www.inkscape.org/namespaces/inkscape"
   width="43.438335"
   height="42.366497"
   viewBox="0 0 11.493059 11.209469"
   version="1.1"
   id="svg1098"
   inkscape:version="0.92.3 (2405546, 2018-03-11)"
   sodipodi:docname="github-icon.svg">
  <defs
     id="defs1092" />
  <sodipodi:namedview
     id="base"
     pagecolor="#ffffff"
     bordercolor="#666666"
     borderopacity="1.0"
     inkscape:pageopacity="0.0"
     inkscape:pageshadow="2"
     inkscape:zoom="1.979899"
     inkscape:cx="121.6898"
     inkscape:cy="-11.706001"
     inkscape:document-units="mm"
     inkscape:current-layer="layer1"
     showgrid="false"
     fit-margin-top="0"
     fit-margin-left="0"
     fit-margin-right="0"
     fit-margin-bottom="0"
     units="px"
     inkscape:window-width="1366"
     inkscape:window-height="719"
     inkscape:window-x="0"
     inkscape:window-y="25"
     inkscape:window-maximized="1" />
  <metadata
     id="metadata1095">
    <rdf:RDF>
      <cc:Work
         rdf:about="">
        <dc:format>image/svg+xml</dc:format>
        <dc:type
           rdf:resource="http://purl.org/dc/dcmitype/StillImage" />
        <dc:title></dc:title>
      </cc:Work>
    </rdf:RDF>
  </metadata>
  <g
     inkscape:label="Layer 1"
     inkscape:groupmode="layer"
     id="layer1"
     transform="translate(-38.854617,-97.871457)">
    <path
       inkscape:connector-curvature="0"
       id="path16"
       style="fill:#1b1817;fill-opacity:1;fill-rule:evenodd;stroke:none;stroke-width:0.03527778"
       d="m 44.600661,97.871457 c -3.172883,0 -5.746044,2.572813 -5.746044,5.746753 0,2.53859 1.646414,4.69265 3.929944,5.45288 0.287514,0.0526 0.392289,-0.12488 0.392289,-0.27728 0,-0.13653 -0.0049,-0.49777 -0.0078,-0.97719 -1.598436,0.34713 -1.935692,-0.77047 -1.935692,-0.77047 -0.261408,-0.66393 -0.638174,-0.84067 -0.638174,-0.84067 -0.521759,-0.35631 0.03951,-0.34925 0.03951,-0.34925 0.576791,0.0406 0.88018,0.59231 0.88018,0.59231 0.512586,0.87807 1.345142,0.62442 1.67252,0.47731 0.05221,-0.37112 0.20073,-0.62442 0.364772,-0.768 -1.275997,-0.14534 -2.617611,-0.63817 -2.617611,-2.84021 0,-0.62759 0.224014,-1.14018 0.591608,-1.54199 -0.05927,-0.14535 -0.256469,-0.72955 0.05644,-1.52083 0,0 0.482248,-0.15451 1.580092,0.58879 0.458258,-0.12735 0.950031,-0.19085 1.438628,-0.19332 0.488244,0.002 0.979664,0.066 1.438628,0.19332 1.097138,-0.7433 1.57868,-0.58879 1.57868,-0.58879 0.313619,0.79128 0.116417,1.37548 0.0575,1.52083 0.3683,0.40181 0.59055,0.9144 0.59055,1.54199 0,2.20768 -1.343731,2.69346 -2.623608,2.83563 0.206022,0.17745 0.389819,0.52811 0.389819,1.06433 0,0.768 -0.0071,1.38783 -0.0071,1.57621 0,0.15381 0.103717,0.33267 0.395111,0.27658 2.28177,-0.76165 3.926773,-2.91395 3.926773,-5.45218 0,-3.17394 -2.573161,-5.746753 -5.747103,-5.746753" />
  </g>
</svg>
