<svg width="18.067mm" height="18.067mm" version="1.1" viewBox="0 0 18.067 18.067" xmlns="http://www.w3.org/2000/svg">
  <g transform="translate(-31.032 -106.54)">
    <path d="m40.065 108.8c-0.34629 0-0.70011 0.0301-1.0539 0.1054-2.0777 0.39898-3.7339 2.0777-4.1254 4.1555-0.36134 1.9648 0.36134 3.7715 1.6712 4.9384 0.3237 0.28607 0.49685 0.68505 0.49685 1.1066v1.739c0 0.82808 0.67752 1.5056 1.5056 1.5056h0.21078c0.26348 0.45168 0.73775 0.7528 1.2948 0.7528 0.55707 0 1.0389-0.30112 1.2948-0.7528h0.21078c0.82808 0 1.5056-0.67752 1.5056-1.5056v-1.739c0-0.41404 0.16562-0.82055 0.48179-1.0991 1.0916-0.96359 1.7766-2.3713 1.7766-3.9372 0-2.9133-2.3563-5.2696-5.2696-5.2696zm1.5056 12.045h-3.0112v-0.75281h3.0112zm0-1.5056h-3.0112v-0.7528h3.0112zm-1.1292-4.2082v1.9498h-0.7528v-1.9498l-1.3776-1.3701 0.53449-0.53449 1.2195 1.2195 1.2195-1.2195 0.53449 0.53449z" style="fill:#00828b;stroke-width:.7528"/>
  </g>
</svg>
