<?xml version="1.0" encoding="UTF-8"?>
<svg width="48" height="48" version="1.1" viewBox="0 0 12.7 12.7" xmlns="http://www.w3.org/2000/svg">
  <g transform="translate(-70.965 -137.21)">
    <path 
      transform="matrix(.26458 0 0 .26458 70.965 137.21)" 
      d="m24 7a7.5893 6.0268 0 0 0-7.4141 4.7598c-0.70422-0.24756-2.4928-0.85156-3.8359-0.85156-1.8863 0-3.5956 0.4341-5.125 1.3008-1.5294 0.84113-2.7271 2.0389-3.5938 3.5938-0.86666 1.5549-1.2988 3.3262-1.2988 5.3145 0 1.9882 0.43217 3.7596 1.2988 5.3145 0.86666 1.5549 2.0643 2.7661 3.5938 3.6328 1.5294 0.86665 2.4913 1.2188 6.3945 1.2188h0.91797v9.7168h18.125v-9.7168h0.91797c3.9032 0 4.8651-0.35226 6.3945-1.2188 1.5294-0.86668 2.7271-2.0779 3.5938-3.6328 0.86666-1.5549 1.2988-3.3262 1.2988-5.3145 0-1.9882-0.43217-3.7596-1.2988-5.3145-0.86666-1.5549-2.0643-2.7526-3.5938-3.5938-1.5294-0.86668-3.2387-1.3008-5.125-1.3008-1.345 0-3.1385 0.60499-3.8398 0.85156a7.5893 6.0268 0 0 0-7.4102-4.7598zm-7.5566 10.27a5.4464 5.4464 0 0 1 5.4473 5.4453 5.4464 5.4464 0 0 1-5.4473 5.4473 5.4464 5.4464 0 0 1-5.4473-5.4473 5.4464 5.4464 0 0 1 5.4473-5.4453zm15.113 0a5.4464 5.4464 0 0 1 5.4473 5.4453 5.4464 5.4464 0 0 1-5.4473 5.4473 5.4464 5.4464 0 0 1-5.4473-5.4473 5.4464 5.4464 0 0 1 5.4473-5.4453z"
      fill="#ffe066"/>
  </g>
</svg>
